<?xml version="1.0" encoding="UTF-8" standalone="no"?>
<!DOCTYPE svg PUBLIC "-//W3C//DTD SVG 1.1//EN" "http://www.w3.org/Graphics/SVG/1.1/DTD/svg11.dtd">
<svg version="1.1" xmlns="http://www.w3.org/2000/svg" xmlns:xlink="http://www.w3.org/1999/xlink" preserveAspectRatio="xMidYMid meet" viewBox="129 171.00515463917543 354 311.99484536082457" width="350" height="306.49"><defs><path d="M130 286.75L130 286.75L130 289.12L130 289.12L130 286.75Z" id="jHvnrLgI2"></path><path d="M130 286.75L130 286.75L130 406.75L130 406.75L130 286.75Z" id="cujEYLvW6"></path><path d="M460 173.51C471.05 173.51 480 182.46 480 193.51C480 250.8 480 402.7 480 460C480 471.05 471.05 480 460 480C396 480 224 480 160 480C148.95 480 140 471.05 140 460C140 402.7 140 250.8 140 193.51C140 182.46 148.95 173.51 160 173.51C224 173.51 396 173.51 460 173.51Z" id="a4Q5PB4ONJ"></path><path d="M292.5 297.91C292.5 304.17 287.65 309.25 281.68 309.25C275.7 309.25 270.85 304.17 270.85 297.91C270.85 291.65 275.7 286.57 281.68 286.57C287.65 286.57 292.5 291.65 292.5 297.91Z" id="eKkGYH7bZ"></path><path d="M316.11 233.04L316.19 233.05L316.28 233.07L316.37 233.09L316.45 233.11L316.54 233.14L316.62 233.17L316.7 233.2L316.78 233.24L316.87 233.28L316.94 233.33L317.02 233.37L317.1 233.42L317.17 233.48L317.25 233.54L407.64 307.88L407.72 307.94L407.78 308L407.85 308.07L407.91 308.14L407.97 308.21L408.02 308.28L408.08 308.35L408.13 308.43L408.17 308.5L408.21 308.58L408.25 308.66L408.29 308.74L408.32 308.82L408.35 308.9L408.38 308.99L408.4 309.07L408.42 309.16L408.44 309.24L408.45 309.33L408.46 309.41L408.47 309.5L408.47 309.59L408.47 309.68L408.47 309.76L408.47 309.82L409.38 310.55L409.53 310.69L409.66 310.85L409.76 311.02L409.83 311.2L409.88 311.39L409.9 311.58L409.9 311.78L409.86 311.97L409.8 312.16L409.71 312.35L409.6 312.52L394.48 331.38L394.34 331.53L394.18 331.66L394.01 331.76L393.83 331.84L393.64 331.88L393.44 331.91L393.25 331.9L393.05 331.87L392.86 331.81L392.68 331.72L392.51 331.6L391.77 331.01L391.67 331.09L391.51 331.18L391.35 331.25L391.17 331.3L391 331.33L390.82 331.34L390.64 331.32L390.46 331.28L390.29 331.21L390.13 331.13L389.98 331.01L374.76 318.36L374.76 392.33L374.76 392.42L374.75 392.52L374.74 392.61L374.72 392.71L374.7 392.8L374.68 392.89L374.65 392.98L374.62 393.06L374.58 393.15L374.54 393.23L374.49 393.31L374.45 393.39L374.41 393.45L374.39 393.47L374.29 393.63L374.17 393.78L374.04 393.92L373.9 394.05L373.75 394.16L373.59 394.27L373.43 394.36L373.26 394.45L373.08 394.51L372.89 394.57L372.7 394.61L372.5 394.63L372.3 394.64L329.8 394.64L329.6 394.63L329.4 394.61L329.21 394.57L329.02 394.51L328.84 394.45L328.67 394.36L328.5 394.27L328.35 394.16L328.2 394.05L328.06 393.92L327.93 393.78L327.81 393.63L327.71 393.47L327.61 393.31L327.53 393.13L327.5 393.05L327.5 393.05L327.4 393.02L327.31 392.98L327.23 392.93L327.15 392.87L327.07 392.81L327 392.74L326.94 392.67L326.88 392.58L326.84 392.5L326.79 392.41L326.76 392.31L326.74 392.22L326.72 392.11L326.72 392.01L326.72 352.99L326.72 352.89L326.74 352.78L326.76 352.69L326.79 352.59L326.84 352.5L326.88 352.42L326.94 352.33L327 352.26L327.07 352.19L327.15 352.13L327.23 352.07L327.31 352.02L327.4 351.98L327.5 351.95L327.6 351.93L327.7 351.91L327.8 351.91L328.3 351.91L327.91 351.49L327.85 351.41L327.8 351.32L327.76 351.23L327.73 351.14L327.72 351.04L327.72 350.95L327.73 350.85L327.75 350.76L327.78 350.67L327.83 350.58L327.89 350.5L327.96 350.43L346.94 332.98L346.88 332.93L346.83 332.86L346.78 332.79L346.75 332.71L346.73 332.63L346.72 332.54L346.72 312.46L346.73 312.37L346.75 312.29L346.78 312.21L346.83 312.14L346.88 312.07L346.95 312.01L347.02 311.97L347.1 311.94L347.19 311.91L347.28 311.91L350.49 311.91L350.58 311.91L350.67 311.94L350.75 311.97L350.82 312.01L350.89 312.07L350.94 312.14L350.99 312.21L351.02 312.29L351.04 312.37L351.05 312.46L351.05 332.54L351.04 332.63L351.02 332.71L350.99 332.79L350.94 332.86L350.89 332.93L350.82 332.99L350.75 333.03L350.67 333.06L350.58 333.09L350.49 333.09L349.81 333.09L350.85 334.22L350.92 334.3L350.97 334.39L351.01 334.48L351.03 334.57L351.05 334.67L351.05 334.76L351.04 334.86L351.02 334.95L350.98 335.04L350.94 335.13L350.88 335.21L350.81 335.28L331.05 353.45L331.05 389.18L370.86 389.18L370.86 313.86L370.86 313.76L370.86 313.67L370.88 313.57L370.89 313.48L370.91 313.39L370.94 313.3L370.97 313.21L371 313.12L371.04 313.04L371.08 312.95L371.12 312.87L371.17 312.8L371.22 312.72L371.28 312.65L371.33 312.58L371.4 312.51L371.46 312.45L371.53 312.39L371.6 312.33L371.67 312.27L371.74 312.22L371.82 312.17L371.9 312.13L371.98 312.09L372.07 312.05L372.16 312.02L372.24 311.99L372.33 311.97L372.43 311.94L372.52 311.93L372.61 311.92L372.71 311.91L372.81 311.91L372.91 311.91L372.99 311.92L373.13 311.88L373.3 311.85L373.48 311.84L373.66 311.86L373.84 311.9L374.01 311.97L374.17 312.05L374.32 312.17L392.58 327.36L405.16 311.66L405.14 311.65L405.06 311.6L404.98 311.55L404.91 311.5L404.83 311.45L404.76 311.39L314.36 237.05L314.29 236.99L314.22 236.92L314.16 236.86L314.1 236.79L314.04 236.72L313.98 236.65L313.96 236.62L313.92 236.7L313.86 236.78L313.81 236.85L313.75 236.93L313.68 237L313.62 237.07L313.55 237.14L313.47 237.2L313.4 237.27L219.76 310.9L232.79 327.16L252.2 311.01L252.36 310.89L252.53 310.8L252.7 310.73L252.88 310.68L253.06 310.65L253.25 310.65L253.43 310.66L253.61 310.7L253.78 310.76L253.95 310.84L254.11 310.94L254.26 311.06L254.39 311.21L255.24 312.23L255.35 312.38L255.45 312.55L255.52 312.72L255.57 312.9L255.59 313.09L255.6 313.27L255.58 313.45L255.54 313.63L255.48 313.81L255.4 313.97L255.38 314.02L255.38 314.07L255.38 389.18L299.09 389.18L299.09 353.18L279.63 335.28L279.55 335.21L279.5 335.13L279.45 335.04L279.42 334.95L279.39 334.86L279.38 334.76L279.39 334.67L279.4 334.57L279.43 334.48L279.47 334.39L279.52 334.3L279.58 334.22L280.62 333.09L279.44 333.09L279.35 333.09L279.27 333.06L279.19 333.03L279.11 332.99L279.05 332.93L278.99 332.86L278.95 332.79L278.91 332.71L278.89 332.63L278.88 332.54L278.88 312.46L278.89 312.37L278.91 312.29L278.95 312.21L278.99 312.14L279.05 312.07L279.11 312.01L279.19 311.97L279.27 311.94L279.35 311.91L279.44 311.91L282.66 311.91L282.75 311.91L282.83 311.94L282.91 311.97L282.99 312.01L283.05 312.07L283.11 312.14L283.15 312.21L283.19 312.29L283.21 312.37L283.21 312.46L283.21 332.54L283.21 332.63L283.19 332.7L302.47 350.43L302.54 350.5L302.6 350.58L302.65 350.67L302.68 350.76L302.71 350.85L302.72 350.95L302.71 351.04L302.7 351.14L302.67 351.23L302.63 351.32L302.58 351.41L302.52 351.49L302.13 351.91L302.34 351.91L302.44 351.91L302.54 351.93L302.64 351.95L302.74 351.98L302.83 352.02L302.91 352.07L302.99 352.13L303.07 352.19L303.14 352.26L303.2 352.33L303.26 352.42L303.3 352.5L303.34 352.59L303.38 352.69L303.4 352.78L303.42 352.89L303.42 352.99L303.42 390.87L303.45 390.93L303.51 391.12L303.56 391.31L303.6 391.5L303.62 391.7L303.63 391.91L303.62 392.11L303.6 392.31L303.56 392.51L303.51 392.7L303.45 392.88L303.37 393.06L303.29 393.23L303.19 393.39L303.08 393.55L302.96 393.7L302.83 393.84L302.69 393.97L302.54 394.09L302.38 394.2L302.22 394.3L302.05 394.39L301.87 394.46L301.68 394.52L301.49 394.57L301.3 394.61L301.1 394.63L300.89 394.64L253.78 394.64L253.58 394.63L253.38 394.61L253.18 394.57L252.99 394.52L252.81 394.46L252.63 394.39L252.46 394.3L252.29 394.2L252.14 394.09L251.99 393.97L251.85 393.84L251.72 393.7L251.62 393.58L251.58 393.53L251.52 393.46L251.46 393.38L251.4 393.29L251.34 393.21L251.3 393.12L251.25 393.03L251.21 392.93L251.17 392.84L251.14 392.74L251.11 392.64L251.09 392.54L251.07 392.43L251.06 392.33L251.05 392.22L251.05 392.11L251.05 317.73L234.44 331.55L234.29 331.66L234.12 331.76L233.95 331.83L233.77 331.88L233.58 331.9L233.4 331.91L233.22 331.89L233.04 331.85L232.87 331.79L232.71 331.87L232.52 331.93L232.33 331.96L232.13 331.97L231.94 331.95L231.75 331.9L231.57 331.82L231.4 331.72L231.24 331.6L231.1 331.44L215.98 312.58L215.86 312.41L215.77 312.23L215.71 312.04L215.68 311.84L215.67 311.65L215.69 311.45L215.74 311.26L215.79 311.16L215.73 311.1L215.66 311.02L215.6 310.95L215.54 310.87L215.48 310.79L215.43 310.71L215.38 310.62L215.34 310.54L215.3 310.45L215.26 310.37L215.23 310.28L215.2 310.19L215.17 310.1L215.15 310.01L215.13 309.92L215.12 309.83L215.11 309.74L215.1 309.64L215.1 309.55L215.1 309.46L215.1 309.37L215.11 309.28L215.12 309.19L215.13 309.09L215.15 309L215.17 308.91L215.2 308.83L215.23 308.74L215.26 308.65L215.29 308.57L215.33 308.48L215.37 308.4L215.42 308.32L215.47 308.24L215.52 308.16L215.58 308.08L215.64 308.01L215.7 307.94L215.77 307.87L215.84 307.8L215.91 307.73L215.99 307.67L310.22 233.57L310.3 233.51L310.39 233.46L310.47 233.4L310.56 233.35L310.64 233.31L310.73 233.26L310.82 233.22L310.91 233.19L311 233.16L311.1 233.13L311.19 233.1L311.28 233.08L311.38 233.06L311.47 233.05L311.57 233.04L311.66 233.03L311.76 233.03L311.85 233.03L311.95 233.03L312.04 233.04L312.14 233.05L312.23 233.07L312.32 233.09L312.42 233.11L312.51 233.13L312.6 233.16L312.69 233.19L312.78 233.23L312.87 233.27L312.95 233.31L313.04 233.35L313.12 233.4L313.2 233.45L313.28 233.51L313.36 233.57L313.44 233.63L313.51 233.7L313.59 233.77L313.66 233.84L313.72 233.92L313.79 233.99L313.85 234.07L313.87 234.1L313.89 234.07L313.94 234L313.99 233.92L314.05 233.85L314.11 233.78L314.17 233.71L314.24 233.64L314.31 233.58L314.38 233.52L314.45 233.47L314.52 233.42L314.6 233.37L314.67 233.32L314.75 233.28L314.83 233.24L314.91 233.2L314.99 233.17L315.07 233.14L315.16 233.11L315.24 233.09L315.33 233.07L315.41 233.05L315.5 233.04L315.58 233.03L315.67 233.02L315.76 233.02L315.85 233.02L315.93 233.02L316.02 233.03L316.02 233.03L316.11 233.04ZM315.54 296.46L315.63 296.47L315.71 296.49L315.8 296.51L315.88 296.53L315.96 296.55L316.04 296.58L316.12 296.61L316.2 296.65L316.27 296.68L316.34 296.72L316.42 296.77L316.49 296.81L316.55 296.86L316.62 296.91L316.68 296.96L316.75 297.02L316.81 297.08L316.86 297.14L316.92 297.2L316.97 297.26L317.02 297.33L317.07 297.4L317.12 297.47L317.16 297.54L317.2 297.61L317.24 297.69L317.27 297.77L317.3 297.84L317.33 297.92L317.36 298.01L317.38 298.09L317.4 298.17L317.41 298.26L317.42 298.34L317.43 298.43L317.44 298.52L317.44 298.61L317.44 392.11L317.44 392.2L317.43 392.29L317.42 392.38L317.41 392.46L317.4 392.55L317.38 392.63L317.36 392.72L317.33 392.8L317.3 392.88L317.27 392.96L317.24 393.03L317.2 393.11L317.16 393.18L317.12 393.25L317.07 393.32L317.02 393.39L316.97 393.46L316.92 393.52L316.86 393.58L316.81 393.64L316.75 393.7L316.68 393.76L316.62 393.81L316.55 393.86L316.49 393.91L316.42 393.95L316.34 394L316.27 394.04L316.2 394.07L316.12 394.11L316.04 394.14L315.96 394.17L315.88 394.19L315.8 394.22L315.71 394.23L315.63 394.25L315.54 394.26L315.45 394.27L315.37 394.28L315.28 394.28L315.19 394.28L315.1 394.27L315.01 394.26L314.92 394.25L314.84 394.23L314.76 394.22L314.67 394.19L314.59 394.17L314.51 394.14L314.43 394.11L314.36 394.07L314.28 394.04L314.21 394L314.14 393.95L314.07 393.91L314 393.86L313.93 393.81L313.87 393.76L313.81 393.7L313.75 393.64L313.69 393.58L313.63 393.52L313.58 393.46L313.53 393.39L313.48 393.32L313.44 393.25L313.39 393.18L313.35 393.11L313.32 393.03L313.28 392.96L313.25 392.88L313.22 392.8L313.2 392.72L313.17 392.63L313.16 392.55L313.14 392.46L313.13 392.38L313.12 392.29L313.11 392.2L313.11 392.11L313.11 298.61L313.11 298.52L313.12 298.43L313.13 298.34L313.14 298.26L313.16 298.17L313.17 298.09L313.2 298.01L313.22 297.92L313.25 297.84L313.28 297.77L313.32 297.69L313.35 297.61L313.39 297.54L313.44 297.47L313.48 297.4L313.53 297.33L313.58 297.26L313.63 297.2L313.69 297.14L313.75 297.08L313.81 297.02L313.87 296.96L313.93 296.91L314 296.86L314.07 296.81L314.14 296.77L314.21 296.72L314.28 296.68L314.36 296.65L314.43 296.61L314.51 296.58L314.59 296.55L314.67 296.53L314.76 296.51L314.84 296.49L314.92 296.47L315.01 296.46L315.1 296.45L315.19 296.45L315.28 296.44L315.37 296.45L315.45 296.45L315.45 296.45L315.54 296.46Z" id="ahOGapdVM"></path><path d="M360 298.09C360 304.35 355.15 309.43 349.18 309.43C343.2 309.43 338.35 304.35 338.35 298.09C338.35 291.83 343.2 286.75 349.18 286.75C355.15 286.75 360 291.83 360 298.09Z" id="a6MUqWhkA"></path><path d="M282.83 335.21C283.62 334.35 283.49 332.95 282.55 332.08C281.61 331.22 280.2 331.21 279.41 332.07C278.62 332.93 278.75 334.33 279.69 335.2C280.63 336.07 282.04 336.07 282.83 335.21Z" id="dzwM9OktS"></path><clipPath id="clipgA6PWBUbI"><use xlink:href="#dzwM9OktS" opacity="1"></use></clipPath><path d="M326.29 283.66C326.29 289.92 321.44 295 315.46 295C309.49 295 304.64 289.92 304.64 283.66C304.64 277.4 309.49 272.32 315.46 272.32C321.44 272.32 326.29 277.4 326.29 283.66Z" id="b2UM4V0dnz"></path><path d="M302.9 353.61C303.69 352.75 303.57 351.35 302.62 350.48C301.68 349.62 300.27 349.61 299.48 350.47C298.69 351.33 298.82 352.73 299.76 353.6C300.7 354.47 302.11 354.47 302.9 353.61Z" id="a5DrKfrTUu"></path><clipPath id="clipc1N4zcJpo"><use xlink:href="#a5DrKfrTUu" opacity="1"></use></clipPath><path d="M350.68 314.11C351.47 313.25 351.35 311.85 350.41 310.98C349.47 310.12 348.06 310.11 347.27 310.97C346.48 311.83 346.6 313.23 347.54 314.1C348.49 314.97 349.89 314.97 350.68 314.11Z" id="b3iccUXCw8"></path><clipPath id="clipe52mF4HRip"><use xlink:href="#b3iccUXCw8" opacity="1"></use></clipPath><path d="M282.76 313.61C283.55 312.75 283.42 311.35 282.48 310.48C281.54 309.62 280.13 309.61 279.34 310.47C278.55 311.33 278.67 312.73 279.62 313.6C280.56 314.47 281.97 314.47 282.76 313.61Z" id="d2UaaF5MCr"></path><clipPath id="clipaHCnu0av"><use xlink:href="#d2UaaF5MCr" opacity="1"></use></clipPath><path d="M350.73 335.03C351.52 334.17 351.4 332.77 350.45 331.9C349.51 331.03 348.11 331.03 347.31 331.89C346.52 332.75 346.65 334.15 347.59 335.02C348.53 335.88 349.94 335.89 350.73 335.03Z" id="c2T64yUGQ"></path><clipPath id="clipa13BpkXz4S"><use xlink:href="#c2T64yUGQ" opacity="1"></use></clipPath><path d="M316.73 299.47C317.34 298.8 317.21 297.69 316.44 296.99C315.67 296.28 314.55 296.24 313.94 296.9C313.33 297.57 313.46 298.68 314.23 299.38C315 300.09 316.12 300.13 316.73 299.47Z" id="b2tZGQtZNj"></path><clipPath id="clipb3ABF425km"><use xlink:href="#b2tZGQtZNj" opacity="1"></use></clipPath><path d="M330.68 354.28C331.47 353.42 331.35 352.02 330.41 351.15C329.47 350.28 328.06 350.28 327.27 351.14C326.48 352 326.6 353.4 327.54 354.27C328.49 355.13 329.89 355.14 330.68 354.28Z" id="b4ClN8vQGG"></path><clipPath id="clipd23Lwa8PWl"><use xlink:href="#b4ClN8vQGG" opacity="1"></use></clipPath><path d="M330.23 393.78C330.84 393.12 330.7 392.01 329.94 391.3C329.17 390.59 328.05 390.55 327.44 391.22C326.83 391.88 326.96 392.99 327.73 393.7C328.5 394.4 329.62 394.44 330.23 393.78Z" id="a7fJfX6Onb"></path><clipPath id="clipc4xW04pi6c"><use xlink:href="#a7fJfX6Onb" opacity="1"></use></clipPath><path d="M393.17 331.28C393.78 330.62 393.65 329.51 392.88 328.8C392.11 328.09 390.99 328.05 390.38 328.72C389.77 329.38 389.91 330.49 390.67 331.2C391.44 331.9 392.56 331.94 393.17 331.28Z" id="cWnB7FPkz"></path><clipPath id="clipa18DSUowZt"><use xlink:href="#cWnB7FPkz" opacity="1"></use></clipPath><path d="M316.85 233.63C316.88 233.17 315.65 232.72 314.1 232.62C312.56 232.52 311.28 232.8 311.25 233.26C311.22 233.71 312.45 234.16 314 234.27C315.54 234.37 316.82 234.08 316.85 233.63Z" id="b3rNBNFcH"></path><clipPath id="clipb2Hgh2QIBC"><use xlink:href="#b3rNBNFcH" opacity="1"></use></clipPath></defs><g><g><use xlink:href="#jHvnrLgI2" opacity="1" fill="#628c2d" fill-opacity="1"></use></g><g><use xlink:href="#cujEYLvW6" opacity="1" fill="#ffffff" fill-opacity="1"></use></g><g><use xlink:href="#a4Q5PB4ONJ" opacity="1" fill="#303f9f" fill-opacity="1"></use></g><g><use xlink:href="#eKkGYH7bZ" opacity="1" fill="#303f9f" fill-opacity="1"></use><g><use xlink:href="#eKkGYH7bZ" opacity="1" fill-opacity="0" stroke="#ffffff" stroke-width="3" stroke-opacity="1"></use></g></g><g><use xlink:href="#ahOGapdVM" opacity="1" fill="#ffffff" fill-opacity="1"></use></g><g><use xlink:href="#a6MUqWhkA" opacity="1" fill="#303f9f" fill-opacity="1"></use><g><use xlink:href="#a6MUqWhkA" opacity="1" fill-opacity="0" stroke="#ffffff" stroke-width="3" stroke-opacity="1"></use></g></g><g><use xlink:href="#dzwM9OktS" opacity="1" fill="#f6f6f6" fill-opacity="1"></use><g clip-path="url(#clipgA6PWBUbI)"><use xlink:href="#dzwM9OktS" opacity="1" fill-opacity="0" stroke="#ffffff" stroke-width="2" stroke-opacity="1"></use></g></g><g><use xlink:href="#b2UM4V0dnz" opacity="1" fill="#303f9f" fill-opacity="1"></use><g><use xlink:href="#b2UM4V0dnz" opacity="1" fill-opacity="0" stroke="#ffffff" stroke-width="3" stroke-opacity="1"></use></g></g><g><use xlink:href="#a5DrKfrTUu" opacity="1" fill="#f6f6f6" fill-opacity="1"></use><g clip-path="url(#clipc1N4zcJpo)"><use xlink:href="#a5DrKfrTUu" opacity="1" fill-opacity="0" stroke="#ffffff" stroke-width="2" stroke-opacity="1"></use></g></g><g><use xlink:href="#b3iccUXCw8" opacity="1" fill="#f6f6f6" fill-opacity="1"></use><g clip-path="url(#clipe52mF4HRip)"><use xlink:href="#b3iccUXCw8" opacity="1" fill-opacity="0" stroke="#ffffff" stroke-width="2" stroke-opacity="1"></use></g></g><g><use xlink:href="#d2UaaF5MCr" opacity="1" fill="#f6f6f6" fill-opacity="1"></use><g clip-path="url(#clipaHCnu0av)"><use xlink:href="#d2UaaF5MCr" opacity="1" fill-opacity="0" stroke="#ffffff" stroke-width="2" stroke-opacity="1"></use></g></g><g><use xlink:href="#c2T64yUGQ" opacity="1" fill="#f6f6f6" fill-opacity="1"></use><g clip-path="url(#clipa13BpkXz4S)"><use xlink:href="#c2T64yUGQ" opacity="1" fill-opacity="0" stroke="#ffffff" stroke-width="2" stroke-opacity="1"></use></g></g><g><use xlink:href="#b2tZGQtZNj" opacity="1" fill="#f6f6f6" fill-opacity="1"></use><g clip-path="url(#clipb3ABF425km)"><use xlink:href="#b2tZGQtZNj" opacity="1" fill-opacity="0" stroke="#ffffff" stroke-width="2" stroke-opacity="1"></use></g></g><g><use xlink:href="#b4ClN8vQGG" opacity="1" fill="#f6f6f6" fill-opacity="1"></use><g clip-path="url(#clipd23Lwa8PWl)"><use xlink:href="#b4ClN8vQGG" opacity="1" fill-opacity="0" stroke="#ffffff" stroke-width="2" stroke-opacity="1"></use></g></g><g><use xlink:href="#a7fJfX6Onb" opacity="1" fill="#f6f6f6" fill-opacity="1"></use><g clip-path="url(#clipc4xW04pi6c)"><use xlink:href="#a7fJfX6Onb" opacity="1" fill-opacity="0" stroke="#ffffff" stroke-width="2" stroke-opacity="1"></use></g></g><g><use xlink:href="#cWnB7FPkz" opacity="1" fill="#f6f6f6" fill-opacity="1"></use><g clip-path="url(#clipa18DSUowZt)"><use xlink:href="#cWnB7FPkz" opacity="1" fill-opacity="0" stroke="#ffffff" stroke-width="2" stroke-opacity="1"></use></g></g><g><use xlink:href="#b3rNBNFcH" opacity="1" fill="#f6f6f6" fill-opacity="1"></use><g clip-path="url(#clipb2Hgh2QIBC)"><use xlink:href="#b3rNBNFcH" opacity="1" fill-opacity="0" stroke="#ffffff" stroke-width="2" stroke-opacity="1"></use></g></g></g></svg>